/* XPM */
static char *bitcoin32[] = {
/* columns rows colors chars-per-pixel */
"32 32 54 1 ",
"  c black",
". c #0E0000",
"X c #110E0A",
"o c #231A1C",
"O c #322714",
"+ c #071323",
"@ c #162C34",
"# c #37352C",
"$ c #28313F",
"% c #43413B",
"& c #273447",
"* c #2B4050",
"= c #2D405D",
"- c #555149",
"; c #4D4E58",
": c #545557",
"> c #5B5958",
", c #5F605D",
"< c #73696A",
"1 c #876B5F",
"2 c #8F8875",
"3 c #B19C7B",
"4 c #7C8283",
"5 c #888C93",
"6 c #84959C",
"7 c #989493",
"8 c #A09487",
"9 c #AB9685",
"0 c #AA9F8C",
"q c #B89D86",
"w c #869AB0",
"e c #90A0B4",
"r c #BBAFA3",
"t c #A0A9B4",
"y c #AEBBB7",
"u c #BCB7B2",
"i c #C2B295",
"p c #E6D3BC",
"a c #C4C0C6",
"s c #CBCBCC",
"d c #F9E8D7",
"f c #C9D5E6",
"g c #CFDBEE",
"h c #DCDEE4",
"j c #D2DCEA",
"k c #C2D5F0",
"l c #FFFFE7",
"z c #EFFAFF",
"x c #F8F2F3",
"c c #FAF9F7",
"v c #F2F6F9",
"b c #FEF9FA",
"n c #F8FFFF",
"m c white",
/* pixels */
"mmmmmmmmmmmmmmmmmmmmmmmmmmmmmmmm",
"mmmmmmmmmmmmmmmmmmmmmmmmmmmmmmmm",
"mmmmmmmmmmmmmmmmmmmmmmmmmmmmmmmm",
"mmmmmmmmmmmmmmmmmmmmmmmmmmmmmmmm",
"mmmmmmmmmmmmmmmmmmmmmmmmmmmmmmmm",
"mmmmmmmmmmmmmmmmmmmmmmmmmmmmmmmm",
"mmmmmmmmmmmmmmmmmmmmmmmmmmmmmmmm",
"mmmmmmmmmmmmmmmmmmmmmmmmmmmmmmmm",
"mmmmmmmmmmmmmmmmmmmmmmmmmmmmmmmm",
"mmmmmmmmmmmmmmmmmmmmmmmmmmmmmmmm",
"mmmmmmmmmmmmmmmmmmmmmmmmmmmmmmmm",
"mmmmmmmmmmmmmmmmmmmmmmmmmmmmmmmm",
"mmmmmmmmmmmmmmmmmmmmmmmmmmmmmmmm",
"mmmmmmmmmmmmmmmmmmmmmmmmmmmmmmmm",
"mmmmmmmmmmmmmmmmmmmmmmmmmmmmmmmm",
"mmmmmmmmmm8,tmm:4amm<>zmmmmmmmmm",
"mmmmmmmmm9em@momd;mXnl mmmmmmmmm",
"mmmmmmmmmq jmmO&mmp=mmsmmmmmmmmm",
"mmmmmmmmmmr $mm- fi*mmmbmmmmmmmm",
"mmmmmmmmm7mm.kymx m mm0gmmmmmmmm",
"mmmmmmmmm1+u#m 52wm3 %6mmmmmmmmm",
"mmmmmmmmmmmhmmmcvmmmmmmmmmmmmmmm",
"mmmmmmmmmmmmmmmmmmmmmmmmmmmmmmmm",
"mmmmmmmmmmmmmmmmmmmmmmmmmmmmmmmm",
"mmmmmmmmmmmmmmmmmmmmmmmmmmmmmmmm",
"mmmmmmmmmmmmmmmmmmmmmmmmmmmmmmmm",
"mmmmmmmmmmmmmmmmmmmmmmmmmmmmmmmm",
"mmmmmmmmmmmmmmmmmmmmmmmmmmmmmmmm",
"mmmmmmmmmmmmmmmmmmmmmmmmmmmmmmmm",
"mmmmmmmmmmmmmmmmmmmmmmmmmmmmmmmm",
"mmmmmmmmmmmmmmmmmmmmmmmmmmmmmmmm",
"mmmmmmmmmmmmmmmmmmmmmmmmmmmmmmmm"
};
